<svg width="123" height="33" viewBox="0 0 123 33" fill="none" xmlns="http://www.w3.org/2000/svg">
<path d="M5.12 23.35C6.2532 25.2982 6.86297 27.5064 6.89 29.76C6.89 30.31 6.89 30.86 6.89 31.42C6.89 31.62 6.89 31.76 7.16 31.75C7.43 31.74 7.58 31.75 7.59 31.43C7.81251 28.396 7.13785 25.3635 5.65 22.71C4.25874 20.4763 3.31459 17.9937 2.87 15.4C2.43217 13.1971 2.7603 10.9108 3.8 8.92C4.38149 7.88423 5.21356 7.0109 6.22 6.38C6.36692 6.29704 6.48722 6.17403 6.5669 6.0253C6.64657 5.87658 6.68233 5.70827 6.67 5.54C6.67821 5.07258 6.73179 4.60706 6.83 4.15C6.92805 3.67187 7.14809 3.22723 7.46874 2.85926C7.7894 2.4913 8.19977 2.21252 8.66 2.05C9.78593 1.64843 10.9747 1.45199 12.17 1.47C13.5 1.47 14.83 1.47 16.17 1.37C16.707 1.35969 17.2351 1.23166 17.7172 0.994946C18.1993 0.758227 18.6235 0.418588 18.96 0C18.9639 0.0666102 18.9639 0.13339 18.96 0.2C18.8351 0.708891 18.5966 1.18289 18.2623 1.58642C17.9281 1.98996 17.5067 2.31255 17.03 2.53C16.129 2.89827 15.1721 3.11129 14.2 3.16C13.26 3.25 12.32 3.34 11.38 3.47C11.134 3.49202 10.8971 3.57364 10.6898 3.7078C10.4824 3.84197 10.3109 4.02464 10.19 4.24C10.1016 4.35748 10.043 4.49463 10.0192 4.6397C9.99538 4.78478 10.0071 4.93347 10.0533 5.07304C10.0995 5.21261 10.1788 5.33891 10.2845 5.44113C10.3901 5.54335 10.519 5.61845 10.66 5.66C11.1318 5.82961 11.6218 5.94371 12.12 6C14.4733 6.31554 16.8579 5.71403 18.78 4.32L19.12 4C19.06 4.21 19.03 4.33 18.99 4.43C18.707 5.19536 18.241 5.87982 17.6327 6.42367C17.0244 6.96751 16.2922 7.35421 15.5 7.55L14.86 7.72C14.48 7.82 14.46 7.9 14.73 8.2C15.32 8.85 15.91 9.49 16.51 10.12C16.72 10.34 16.78 10.52 16.57 10.75C16.5019 10.8229 16.4477 10.9076 16.41 11C16.0942 11.6192 15.593 12.1245 14.9764 12.4454C14.3597 12.7662 13.6584 12.8867 12.97 12.79H12.64C12.5869 12.7833 12.5331 12.7833 12.48 12.79C12.521 12.9363 12.5711 13.0799 12.63 13.22C13.0819 14.0442 13.7816 14.7054 14.63 15.11C15.45 15.55 16.3 15.94 17.12 16.38C17.94 16.82 18.85 17.33 19.72 17.81L19.66 17.92C19.6071 17.9298 19.5529 17.9298 19.5 17.92C18.05 17.47 16.59 17.03 15.14 16.56C14.0363 16.2804 13.0105 15.7538 12.14 15.02C12.0697 14.9689 11.9922 14.9284 11.91 14.9C11.8956 16.284 12.0706 17.6634 12.43 19C11.7778 18.1813 11.2828 17.2489 10.97 16.25C10.69 15.25 10.5 14.25 10.26 13.17C9.91433 13.9289 9.71744 14.747 9.68 15.58C9.61 15.43 9.57 15.35 9.54 15.27C9.07862 13.8494 8.9925 12.3337 9.29 10.87C9.3575 10.7066 9.35871 10.5233 9.29338 10.3591C9.22804 10.1948 9.10129 10.0624 8.94 9.99C8.8 9.91 8.69 9.81 8.56 9.72V9.58C9.14469 9.64272 9.72328 9.75309 10.29 9.91C10.941 10.1688 11.5587 10.5045 12.13 10.91C12.5106 11.1693 12.9625 11.3038 13.423 11.2948C13.8834 11.2858 14.3297 11.1339 14.7 10.86C14.87 10.72 14.91 10.6 14.75 10.43C14.12 9.72 13.51 9 12.87 8.33C12.81 8.26 12.71 8.24 12.57 8.16L12.68 9.16L12.31 8.95C11.54 8.47 10.78 7.95 10.03 7.51C9.9419 7.44426 9.83492 7.40875 9.725 7.40875C9.61508 7.40875 9.5081 7.44426 9.42 7.51C8.58645 8.07427 7.5817 8.329 6.58 8.23C6.36292 8.23205 6.15506 8.31806 6 8.47C4.98366 9.50383 4.35498 10.8566 4.22 12.3C4.0773 14.5166 4.44329 16.7365 5.29 18.79C5.31008 18.8483 5.34057 18.9026 5.38 18.95C5.38 18.95 5.44 18.95 5.52 19.02L5.63 16.56C5.73 16.7 5.79 16.76 5.82 16.82C6.24 17.82 6.66 18.82 7.09 19.76C7.52 20.7 8.19 21.96 8.58 23.12C8.82689 24.0899 9.00731 25.0755 9.12 26.07C9.13412 26.1694 9.17568 26.2629 9.24 26.34C10.1482 24.4003 10.6388 22.2914 10.68 20.15H10.77C10.8214 20.2359 10.8649 20.3263 10.9 20.42C11.05 20.98 11.21 21.53 11.33 22.09C11.39 22.36 11.49 22.46 11.77 22.45C13.2586 22.3912 14.749 22.5087 16.21 22.8C16.88 22.94 16.87 22.97 16.89 22.27C16.9143 21.8388 16.9916 21.4123 17.12 21C18.1025 23.8202 20.1279 26.157 22.78 27.53C23.1739 24.9501 22.9126 22.3125 22.02 19.86C22.23 20.05 22.38 20.2 22.53 20.32C23.2624 20.9781 24.0302 21.5957 24.83 22.17C25.389 22.5229 26.0047 22.7767 26.65 22.92C27.1456 23.0388 27.6673 22.976 28.1205 22.7429C28.5737 22.5099 28.9283 22.1222 29.12 21.65C29.5234 20.5591 29.5144 19.3583 29.0945 18.2736C28.6746 17.1889 27.8728 16.295 26.84 15.76C26.0688 15.4349 25.2461 15.2487 24.41 15.21C23.5909 15.155 22.7691 15.155 21.95 15.21C21.637 15.2471 21.3399 15.368 21.09 15.56C20.7165 15.8645 20.2612 16.0515 19.7816 16.0976C19.3019 16.1437 18.8193 16.0467 18.3947 15.8189C17.9701 15.591 17.6224 15.2426 17.3956 14.8175C17.1687 14.3923 17.0728 13.9096 17.12 13.43L17.36 13.58C17.5215 13.7054 17.7064 13.7975 17.9038 13.8507C18.1013 13.9039 18.3073 13.9173 18.51 13.89L19.9 13.8C20.1546 13.7768 20.4106 13.8243 20.64 13.9372C20.8693 14.0501 21.0631 14.2241 21.2 14.44C21.2548 14.5259 21.3366 14.5912 21.4325 14.6256C21.5285 14.6599 21.6331 14.6615 21.73 14.63C23.4464 14.3538 25.2019 14.4459 26.88 14.9C27.9472 15.2472 28.883 15.9121 29.5621 16.8056C30.2412 17.6992 30.6312 18.7788 30.68 19.9C30.7901 21.1222 30.4327 22.3408 29.68 23.31C29.1193 24.0081 28.3406 24.4979 27.4685 24.701C26.5964 24.904 25.6814 24.8086 24.87 24.43C24.22 24.17 24.23 24.17 24.23 24.89C24.2819 26.8581 24.0082 28.8212 23.42 30.7C23.32 30.99 23.19 31.27 23.07 31.55C22.95 31.83 23 31.96 23.35 32L26.29 32.28C26.3519 32.2799 26.4119 32.3011 26.46 32.34H0C1.26 32.22 2.52 32.08 3.78 31.98C3.92588 31.9828 4.0688 31.9387 4.18764 31.854C4.30649 31.7694 4.39497 31.6488 4.44 31.51C5.04258 30.2104 5.34668 28.7924 5.33 27.36C5.33 26.19 5.2 25.01 5.13 23.84C5.12 23.65 5.12 23.5 5.12 23.35ZM19.28 28.15C19.328 28.1726 19.3719 28.203 19.41 28.24C19.8461 28.6244 20.1661 29.123 20.334 29.6796C20.5018 30.2362 20.5108 30.8286 20.36 31.39C20.36 31.51 20.36 31.72 20.41 31.75C20.4808 31.7817 20.5574 31.7981 20.635 31.7981C20.7126 31.7981 20.7892 31.7817 20.86 31.75C20.915 31.7043 20.9602 31.648 20.9928 31.5844C21.0255 31.5208 21.0449 31.4513 21.05 31.38C21.2062 30.6929 21.1673 29.9758 20.9376 29.3096C20.7079 28.6435 20.2965 28.0548 19.75 27.61C18.8843 26.8682 17.8207 26.3955 16.69 26.25C15.5179 26.0067 14.2981 26.1643 13.2263 26.6975C12.1546 27.2306 11.293 28.1084 10.78 29.19C10.4937 29.8369 10.2596 30.5057 10.08 31.19C9.95 31.59 10 31.62 10.43 31.62H15.77C16.54 31.62 17.3 31.68 18.06 31.68C18.143 31.6765 18.224 31.654 18.2969 31.6141C18.3697 31.5742 18.4324 31.5181 18.48 31.45C18.6943 30.9834 18.865 30.498 18.99 30C19.1106 29.3886 19.1974 28.771 19.25 28.15H19.28Z" fill="white"/>
<path d="M43.12 22V32.06H38.66V6.06C38.7566 6.05507 38.8534 6.05507 38.95 6.06C41.22 6.06 43.49 6.06 45.77 6.06C47.0222 6.04148 48.2526 6.38904 49.31 7.06C49.9428 7.44927 50.4711 7.98694 50.8492 8.62643C51.2273 9.26592 51.4438 9.98796 51.48 10.73C51.615 12.9012 51.615 15.0788 51.48 17.25C51.4296 18.392 50.9725 19.4782 50.1913 20.3127C49.4101 21.1471 48.3562 21.6746 47.22 21.8C46.1475 21.9203 45.0692 21.9804 43.99 21.98C43.71 22 43.43 22 43.12 22ZM43.12 17.68H43.26C43.93 17.68 44.61 17.68 45.26 17.68C45.4763 17.6977 45.694 17.6715 45.8999 17.6029C46.1059 17.5343 46.2958 17.4248 46.4583 17.281C46.6209 17.1371 46.7526 16.9619 46.8457 16.7658C46.9388 16.5697 46.9913 16.3569 47 16.14C47.0743 15.5997 47.1144 15.0553 47.12 14.51C47.12 13.64 47.12 12.77 47.05 11.9C47.0595 11.55 46.9454 11.2078 46.7278 10.9336C46.5102 10.6593 46.203 10.4704 45.86 10.4C44.97 10.32 44.06 10.4 43.15 10.4L43.12 17.68Z" fill="white"/>
<path d="M87.12 24.35H79.94C79.94 25.35 79.94 26.35 79.94 27.35C79.9747 27.6166 80.1017 27.8627 80.2991 28.0454C80.4964 28.2281 80.7515 28.3359 81.02 28.35C81.2524 28.38 81.4876 28.38 81.72 28.35C81.8714 28.3487 82.0211 28.3173 82.1602 28.2575C82.2994 28.1978 82.4252 28.1109 82.5304 28.002C82.6356 27.8931 82.718 27.7643 82.7729 27.6231C82.8278 27.482 82.854 27.3314 82.85 27.18C82.85 26.95 82.85 26.71 82.85 26.47H87.12C87.38 29.05 86.27 31.64 83.02 32.24C81.72 32.4815 80.3806 32.3991 79.12 32C78.2223 31.737 77.4204 31.219 76.8115 30.5089C76.2026 29.7988 75.813 28.9272 75.69 28C75.6303 27.6498 75.6002 27.2952 75.6 26.94C75.6 24.16 75.54 21.38 75.6 18.6C75.69 15.17 77.92 13.14 81.36 13.19C82.6314 13.1433 83.8858 13.4928 84.95 14.19C85.5219 14.6048 85.997 15.1388 86.3423 15.7552C86.6876 16.3716 86.8949 17.0556 86.95 17.76C87.07 18.76 87.04 19.87 87.06 20.92C87.08 21.97 87.12 23.16 87.12 24.35ZM82.77 21.08C82.77 20.16 82.77 19.29 82.77 18.43C82.7656 18.2466 82.7231 18.0662 82.6452 17.9002C82.5672 17.7342 82.4555 17.5863 82.3172 17.4659C82.1789 17.3455 82.017 17.2552 81.8419 17.2008C81.6667 17.1464 81.4822 17.1291 81.3 17.15C81.1242 17.1459 80.9494 17.1775 80.7862 17.2429C80.623 17.3082 80.4747 17.4061 80.3504 17.5304C80.2261 17.6547 80.1283 17.803 80.0629 17.9662C79.9975 18.1294 79.9659 18.3042 79.97 18.48C79.91 19.31 79.97 20.15 79.91 20.98C79.91 20.98 79.91 21.04 79.91 21.08H82.77Z" fill="white"/>
<path d="M117.87 32.07H113.4V10.33H109.12V6.06H122.12V10.29H117.87V32.07Z" fill="white"/>
<path d="M67.74 27.21L66.58 29.84C66.29 30.5 66.01 31.17 65.7 31.84C65.7 31.94 65.51 32.08 65.41 32.08C63.96 32.08 62.51 32.08 61.06 32.08H60.98L61.16 31.72L65.62 23.46C65.6891 23.3489 65.7258 23.2208 65.7258 23.09C65.7258 22.9592 65.6891 22.831 65.62 22.72C64.22 19.8 62.8233 16.8766 61.43 13.95L61.24 13.55H61.58C62.9 13.55 64.23 13.55 65.58 13.55C65.6868 13.5347 65.7955 13.5602 65.8844 13.6213C65.9733 13.6825 66.036 13.7748 66.06 13.88C66.59 15.2 67.12 16.58 67.67 18L67.85 18.39L68.27 17.31C68.72 16.15 69.16 15 69.6 13.84C69.6172 13.7398 69.6728 13.6504 69.755 13.5906C69.8372 13.5308 69.9394 13.5055 70.04 13.52C71.46 13.52 72.89 13.52 74.38 13.52C74.31 13.67 74.26 13.78 74.2 13.89C72.72 16.7033 71.2367 19.5166 69.75 22.33C69.6963 22.4208 69.668 22.5244 69.668 22.63C69.668 22.7355 69.6963 22.8391 69.75 22.93C71.33 25.84 72.89 28.77 74.45 31.69C74.52 31.81 74.58 31.94 74.67 32.11C73.47 32.11 72.33 32.11 71.19 32.11C70.8 32.11 70.33 32.22 70.04 32.04C69.75 31.86 69.69 31.39 69.53 31.04C69 29.89 68.46 28.75 67.93 27.6L67.74 27.21Z" fill="white"/>
<path d="M96.52 27.71V32.08C96.26 32.08 95.99 32.08 95.73 32.08C94.9458 32.0793 94.163 32.0123 93.39 31.88C92.5825 31.6744 91.8593 31.2219 91.3215 30.5854C90.7836 29.949 90.458 29.1605 90.39 28.33C90.39 27.9 90.32 27.47 90.31 27.04V6.03998H94.76V26.14C94.75 26.2998 94.75 26.4601 94.76 26.62C94.7566 26.7688 94.7847 26.9166 94.8422 27.0538C94.8998 27.1911 94.9856 27.3146 95.0941 27.4165C95.2026 27.5184 95.3313 27.5963 95.4719 27.6451C95.6124 27.694 95.7617 27.7127 95.91 27.7L96.52 27.71Z" fill="white"/>
<path d="M108.02 32.07H103.63V6.07001H108.02V32.07Z" fill="white"/>
<path d="M58.91 32.07H54.51V13.51H58.91V32.07Z" fill="white"/>
<path d="M54.51 6.04999H58.91V10.44H54.51V6.04999Z" fill="white"/>
</svg>
