<svg xmlns="http://www.w3.org/2000/svg" viewBox="0 0 136 33"><defs><style>.a{fill:#fff;}</style></defs><title>logo</title><path class="a" d="M10,23.35a13.06,13.06,0,0,1,1.77,6.41c0,.55,0,1.1,0,1.66,0,.2,0,.34.27.33s.42,0,.43-.32a15.51,15.51,0,0,0-1.94-8.72A20.32,20.32,0,0,1,7.75,15.4a9.85,9.85,0,0,1,.93-6.48A7.1,7.1,0,0,1,11.1,6.38a.89.89,0,0,0,.45-.84,7.22,7.22,0,0,1,.16-1.39,2.83,2.83,0,0,1,1.83-2.1,10,10,0,0,1,3.51-.58c1.33,0,2.66,0,4-.1A3.67,3.67,0,0,0,23.84,0a1.72,1.72,0,0,1,0,.2,3.47,3.47,0,0,1-1.93,2.33,8.62,8.62,0,0,1-2.83.63c-.94.09-1.88.18-2.82.31a1.52,1.52,0,0,0-1.19.77.91.91,0,0,0,.47,1.42A6.46,6.46,0,0,0,17,6a9.25,9.25,0,0,0,6.66-1.68L24,4c-.06.21-.09.33-.13.43a5,5,0,0,1-3.49,3.12l-.64.17c-.38.1-.4.18-.13.48.59.65,1.18,1.29,1.78,1.92.21.22.27.4.06.63a.82.82,0,0,0-.16.25,3.34,3.34,0,0,1-3.44,1.79h-.33a.64.64,0,0,0-.16,0,3.66,3.66,0,0,0,.15.43,4.48,4.48,0,0,0,2,1.89c.82.44,1.67.83,2.49,1.27s1.73.95,2.6,1.43l-.06.11a.44.44,0,0,1-.16,0c-1.45-.45-2.91-.89-4.36-1.36a7.52,7.52,0,0,1-3-1.54.88.88,0,0,0-.23-.12A15.18,15.18,0,0,0,17.31,19a8.48,8.48,0,0,1-1.46-2.75c-.28-1-.47-2-.71-3.08a6.52,6.52,0,0,0-.58,2.41c-.07-.15-.11-.23-.14-.31a8.66,8.66,0,0,1-.25-4.4.68.68,0,0,0-.35-.88c-.14-.08-.25-.18-.38-.27l0-.14a10.8,10.8,0,0,1,1.73.33,8.79,8.79,0,0,1,1.84,1,2.22,2.22,0,0,0,2.57-.05c.17-.14.21-.26.05-.43C19,9.72,18.39,9,17.75,8.33c-.06-.07-.16-.09-.3-.17l.11,1-.37-.21c-.77-.48-1.53-1-2.28-1.44a.51.51,0,0,0-.61,0,4.31,4.31,0,0,1-2.84.72.84.84,0,0,0-.58.24A6.3,6.3,0,0,0,9.1,12.3a14.57,14.57,0,0,0,1.07,6.49.51.51,0,0,0,.09.16s.06,0,.14.07l.11-2.46c.1.14.16.2.19.26.42,1,.84,2,1.27,2.94s1.1,2.2,1.49,3.36A22,22,0,0,1,14,26.07a.54.54,0,0,0,.12.27,15.29,15.29,0,0,0,1.44-6.19l.09,0a1.66,1.66,0,0,1,.13.27c.15.56.31,1.11.43,1.67.06.27.16.37.44.36a18.89,18.89,0,0,1,4.44.35c.67.14.66.17.68-.53A5.27,5.27,0,0,1,22,21a11.68,11.68,0,0,0,5.66,6.53,15.56,15.56,0,0,0-.76-7.67c.21.19.36.34.51.46a27,27,0,0,0,2.3,1.85,5.74,5.74,0,0,0,1.82.75A2.13,2.13,0,0,0,34,21.65a4.77,4.77,0,0,0-2.28-5.89,7.1,7.1,0,0,0-2.43-.55,18.37,18.37,0,0,0-2.46,0,1.75,1.75,0,0,0-.86.35A2.44,2.44,0,0,1,22,13.43l.24.15a1.54,1.54,0,0,0,1.15.31l1.39-.09a1.39,1.39,0,0,1,1.3.64.46.46,0,0,0,.53.19,12.26,12.26,0,0,1,5.15.27,5.51,5.51,0,0,1,3.8,5,4.85,4.85,0,0,1-1,3.41,4,4,0,0,1-4.81,1.12c-.65-.26-.64-.26-.64.46a17.87,17.87,0,0,1-.81,5.81c-.1.29-.23.57-.35.85s-.07.41.28.45l2.94.28a.27.27,0,0,1,.17.06H4.88v0c1.26-.12,2.52-.26,3.78-.36a.68.68,0,0,0,.66-.47,9.6,9.6,0,0,0,.89-4.15c0-1.17-.13-2.35-.2-3.52C10,23.65,10,23.5,10,23.35Zm14.16,4.8a.48.48,0,0,1,.13.09,3.12,3.12,0,0,1,.95,3.15c0,.12,0,.33.05.36a.55.55,0,0,0,.45,0,.53.53,0,0,0,.19-.37,3.78,3.78,0,0,0-1.3-3.77,5.85,5.85,0,0,0-3.06-1.36,5.34,5.34,0,0,0-5.91,2.94,13.27,13.27,0,0,0-.7,2c-.13.4-.08.43.35.43h5.34c.77,0,1.53.06,2.29.06a.54.54,0,0,0,.42-.23A8.34,8.34,0,0,0,23.87,30,16.94,16.94,0,0,0,24.13,28.15Z"/><path class="a" d="M48,22V32.06H43.54v-26a2.85,2.85,0,0,1,.29,0c2.27,0,4.54,0,6.82,0a6.43,6.43,0,0,1,3.54,1,4.57,4.57,0,0,1,2.17,3.67,52.53,52.53,0,0,1,0,6.52A4.79,4.79,0,0,1,52.1,21.8a28.87,28.87,0,0,1-3.23.18C48.59,22,48.31,22,48,22Zm0-4.32.14,0c.67,0,1.35,0,2,0a1.61,1.61,0,0,0,1.74-1.54A12.93,12.93,0,0,0,52,14.51c0-.87,0-1.74-.07-2.61a1.49,1.49,0,0,0-1.19-1.5c-.89-.08-1.8,0-2.71,0Z"/><path class="a" d="M92,24.35H84.82c0,1,0,2,0,3a1.15,1.15,0,0,0,1.08,1,2.73,2.73,0,0,0,.7,0,1.14,1.14,0,0,0,1.13-1.17c0-.23,0-.47,0-.71H92c.26,2.58-.85,5.17-4.1,5.77A8.05,8.05,0,0,1,84,32a4.83,4.83,0,0,1-3.43-4,6.32,6.32,0,0,1-.09-1.06c0-2.78-.06-5.56,0-8.34.09-3.43,2.32-5.46,5.76-5.41a6.14,6.14,0,0,1,3.59,1,4.88,4.88,0,0,1,2,3.57c.12,1,.09,2.11.11,3.16S92,23.16,92,24.35Zm-4.35-3.27c0-.92,0-1.79,0-2.65a1.32,1.32,0,0,0-1.47-1.28,1.3,1.3,0,0,0-1.33,1.33c-.06.83,0,1.67-.06,2.5,0,0,0,.06,0,.1Z"/><path class="a" d="M122.75,32.07h-4.47V10.33H114V6.06h13v4.23h-4.25Z"/><path class="a" d="M72.62,27.21l-1.16,2.63c-.29.66-.57,1.33-.88,2,0,.1-.19.24-.29.24-1.45,0-2.9,0-4.35,0l-.08,0,.18-.36,4.46-8.26a.7.7,0,0,0,0-.74q-2.1-4.38-4.19-8.77l-.19-.4.34,0c1.32,0,2.65,0,4,0a.43.43,0,0,1,.48.33C71.47,15.2,72,16.58,72.55,18l.18.39.42-1.08c.45-1.16.89-2.31,1.33-3.47a.39.39,0,0,1,.44-.32c1.42,0,2.85,0,4.34,0-.07.15-.12.26-.18.37q-2.22,4.22-4.45,8.44a.59.59,0,0,0,0,.6c1.58,2.91,3.14,5.84,4.7,8.76.07.12.13.25.22.42-1.2,0-2.34,0-3.48,0-.39,0-.86.11-1.15-.07s-.35-.65-.51-1c-.53-1.15-1.07-2.29-1.6-3.44Z"/><path class="a" d="M101.4,27.71v4.37c-.26,0-.53,0-.79,0a13.94,13.94,0,0,1-2.34-.2,4,4,0,0,1-3-3.55c0-.43-.07-.86-.08-1.29v-21h4.45V26.14a3.85,3.85,0,0,0,0,.48,1.06,1.06,0,0,0,1.15,1.08Z"/><path class="a" d="M112.9,32.07h-4.39v-26h4.39Z"/><path class="a" d="M63.79,32.07h-4.4V13.51h4.4Z"/><path class="a" d="M59.39,6.05h4.4v4.39h-4.4Z"/></svg>